<?xml version="1.0" encoding="UTF-8"?>
<svg id="Layer_2" data-name="Layer 2" xmlns="http://www.w3.org/2000/svg" viewBox="0 0 256 256">
  <defs>
    <style>
      .cls-1, .cls-2, .cls-3, .cls-4, .cls-5, .cls-6 {
        stroke-width: 0px;
      }

      .cls-1, .cls-3 {
        fill: #0a0506;
      }

      .cls-2 {
        fill: #9cc032;
      }

      .cls-3 {
        isolation: isolate;
        opacity: .41;
      }

      .cls-4 {
        fill: #b39639;
      }

      .cls-5 {
        fill: #7a8c37;
      }

      .cls-6 {
        fill: #b52105;
      }
    </style>
  </defs>
  <g id="Layer_3" data-name="Layer 3">
    <rect class="cls-2" width="256" height="256"/>
  </g>
  <g id="Layer_2-2" data-name="Layer 2">
    <path class="cls-5" d="m19.45,204.03h205.43c21.28,0,25-14.03,25-19.91s-8.68-13.51-34.34-17.87c-25.66-4.36-129.38-11.65-147.3-3.48s-57.95,26.27-48.79,41.26Z"/>
  </g>
  <g id="Layer_1-2" data-name="Layer 1">
    <g>
      <g>
        <polygon class="cls-1" points="28.62 196.21 25.57 196.21 18.79 180.55 25.4 177.66 28.62 196.21"/>
        <path class="cls-3" d="m25.4,177.67s-.02,0-.03,0l-6.26,2.73c-.1.1-.18.2-.27.29l1.7,3.94c1.06-.04,2.31-.35,3.56-.96.8-.39,1.5-.86,2.09-1.35l-.81-4.65Z"/>
        <ellipse class="cls-1" cx="21.89" cy="179.04" rx="5.55" ry="2.8" transform="translate(-75.9 27.48) rotate(-25.86)"/>
      </g>
      <polygon class="cls-1" points="61.9 196.21 195.25 196.21 128.57 74.6 61.9 196.21"/>
      <path class="cls-6" d="m201.87,167.8c-18.35-18.36-35.04-38.31-49.89-59.6l-23.41-33.59-23.43,33.61c-14.84,21.28-31.53,41.22-49.87,59.56l6.63,28.44h54.09l12.59-65.2,12.59,65.2h54.08l6.62-28.42Z"/>
      <path class="cls-3" d="m128.58,131.01s-9.22,38.17-35.34,55.47l22.75,9.73"/>
      <path class="cls-3" d="m128.58,131.01s9.22,38.17,35.34,55.47l-22.75,9.73"/>
      <path class="cls-4" d="m21.21,188.51c-.84,0-1.33-.08-1.48-.12-1.1-.23-1.81-1.3-1.58-2.4.22-1.09,1.28-1.79,2.37-1.59.22.03,8.47,1.09,25.49-11.81,15.89-12.04,42.82-39,80.84-99.08.6-.95,1.86-1.23,2.81-.63.95.6,1.23,1.86.63,2.81C63,182.02,28.59,188.51,21.21,188.51Z"/>
      <g>
        <polygon class="cls-1" points="227.94 196.21 231 196.21 237.78 180.55 231.17 177.66 227.94 196.21"/>
        <path class="cls-3" d="m231.17,177.67s.02,0,.03,0l6.26,2.73c.1.1.18.2.27.29l-1.7,3.94c-1.06-.04-2.31-.35-3.56-.96-.8-.39-1.5-.86-2.09-1.35l.81-4.65Z"/>
        <ellipse class="cls-1" cx="234.67" cy="179.03" rx="2.8" ry="5.55" transform="translate(-28.79 312.11) rotate(-64.14)"/>
      </g>
      <path class="cls-4" d="m235.36,188.51c-7.38,0-41.78-6.48-109.08-112.82-.6-.95-.32-2.21.63-2.81.95-.6,2.21-.32,2.81.63,38.63,61.04,65.84,87.99,81.87,99.85,16.53,12.23,24.36,11.06,24.43,11.04,1.1-.23,2.18.48,2.4,1.58.23,1.1-.48,2.18-1.58,2.4-.14.03-.64.12-1.48.12Z"/>
      <path class="cls-3" d="m235.91,176.52c-2.76-1.34-5.54-1.3-6.22.1-.41.85.07,2.01,1.13,3.08l-.46,2.63h0l-.2,1.14c-12.38-3.78-44.61-22.08-99.58-108.59.1-.76-.23-1.56-.92-2-.43-.27-.91-.35-1.38-.29-.1-.01-.19-.02-.29-.02v123.64h67.25l6.05-25.93c13.05,11.22,22.35,15.61,28.16,17.27l-1.51,8.67h3.05l3.35-7.75c.38.03.71.04,1.01.04.84,0,1.33-.08,1.48-.11,1.09-.22,1.77-1.27,1.57-2.36-.2-1.07-1.22-1.78-2.29-1.63l.82-1.89c1.33.07,2.37-.27,2.75-1.05.67-1.39-1.02-3.6-3.78-4.94Z"/>
    </g>
  </g>
</svg>